<?xml version="1.0" encoding="UTF-8" standalone="no"?>
<!DOCTYPE svg PUBLIC "-//W3C//DTD SVG 1.1//EN"
 "http://www.w3.org/Graphics/SVG/1.1/DTD/svg11.dtd">
<!-- Generated by graphviz version 2.43.0 (0)
 -->
<!-- Title: %3 Pages: 1 -->
<svg width="142pt" height="127pt"
 viewBox="0.00 0.00 141.98 127.05" xmlns="http://www.w3.org/2000/svg" xmlns:xlink="http://www.w3.org/1999/xlink">
<g id="graph0" class="graph" transform="scale(1 1) rotate(0) translate(4 123.05)">
<title>%3</title>
<polygon fill="white" stroke="transparent" points="-4,4 -4,-123.05 137.98,-123.05 137.98,4 -4,4"/>
<!-- d1 -->
<g id="node1" class="node">
<title>d1</title>
<polygon fill="lightgray" stroke="black" points="39.53,-119.05 13.53,-119.05 13.53,-101.05 39.53,-101.05 39.53,-119.05"/>
<text text-anchor="middle" x="26.53" y="-107.85" font-family="Times,serif" font-size="9.00">d1</text>
</g>
<!-- translate -->
<g id="node4" class="node">
<title>translate</title>
<ellipse fill="lightblue" stroke="black" cx="32.53" cy="-32.53" rx="32.55" ry="32.55"/>
<text text-anchor="middle" x="32.53" y="-30.33" font-family="Times,serif" font-size="9.00">translate</text>
</g>
<!-- d1&#45;&gt;translate -->
<g id="edge1" class="edge">
<title>d1&#45;&gt;translate</title>
<path fill="none" stroke="green" stroke-width="0.39" d="M27.17,-100.97C27.68,-94.59 28.43,-85.15 29.21,-75.34"/>
<polygon fill="green" stroke="green" stroke-width="0.39" points="32.72,-75.34 30.02,-65.1 25.74,-74.79 32.72,-75.34"/>
</g>
<!-- rotate -->
<g id="node5" class="node">
<title>rotate</title>
<ellipse fill="lightblue" stroke="black" cx="108.53" cy="-32.53" rx="25.41" ry="25.41"/>
<text text-anchor="middle" x="108.53" y="-30.33" font-family="Times,serif" font-size="9.00">rotate</text>
</g>
<!-- d1&#45;&gt;rotate -->
<g id="edge2" class="edge">
<title>d1&#45;&gt;rotate</title>
<path fill="none" stroke="red" stroke-width="0.11" d="M35.39,-100.96C45.03,-92.14 60.9,-77.62 74.53,-65.05 77.07,-62.71 79.72,-60.26 82.37,-57.81"/>
<polygon fill="red" stroke="red" stroke-width="0.11" points="85.24,-59.93 90.19,-50.56 80.48,-54.79 85.24,-59.93"/>
</g>
<!-- d2 -->
<g id="node2" class="node">
<title>d2</title>
<polygon fill="lightgray" stroke="black" points="83.53,-119.05 57.53,-119.05 57.53,-101.05 83.53,-101.05 83.53,-119.05"/>
<text text-anchor="middle" x="70.53" y="-107.85" font-family="Times,serif" font-size="9.00">d2</text>
</g>
<!-- d2&#45;&gt;translate -->
<g id="edge3" class="edge">
<title>d2&#45;&gt;translate</title>
<path fill="none" stroke="red" stroke-width="0.16" d="M66.46,-100.97C62.77,-93.64 57.06,-82.29 51.37,-70.98"/>
<polygon fill="red" stroke="red" stroke-width="0.16" points="54.47,-69.35 46.85,-61.99 48.21,-72.49 54.47,-69.35"/>
</g>
<!-- d2&#45;&gt;rotate -->
<g id="edge4" class="edge">
<title>d2&#45;&gt;rotate</title>
<path fill="none" stroke="red" stroke-width="0.34" d="M74.59,-100.97C78.94,-92.34 86.1,-78.11 92.72,-64.94"/>
<polygon fill="red" stroke="red" stroke-width="0.34" points="96.04,-66.14 97.4,-55.63 89.78,-62.99 96.04,-66.14"/>
</g>
<!-- d3 -->
<g id="node3" class="node">
<title>d3</title>
<polygon fill="lightgray" stroke="black" points="127.53,-119.05 101.53,-119.05 101.53,-101.05 127.53,-101.05 127.53,-119.05"/>
<text text-anchor="middle" x="114.53" y="-107.85" font-family="Times,serif" font-size="9.00">d3</text>
</g>
<!-- d3&#45;&gt;translate -->
<g id="edge5" class="edge">
<title>d3&#45;&gt;translate</title>
<path fill="none" stroke="red" stroke-width="0.27" d="M105.75,-100.97C95.76,-91.77 78.87,-76.21 63.83,-62.36"/>
<polygon fill="red" stroke="red" stroke-width="0.27" points="65.9,-59.51 56.18,-55.31 61.16,-64.66 65.9,-59.51"/>
</g>
<!-- d3&#45;&gt;rotate -->
<g id="edge6" class="edge">
<title>d3&#45;&gt;rotate</title>
<path fill="none" stroke="green" stroke-width="0.17" d="M113.88,-100.97C113.25,-93 112.24,-80.27 111.27,-68.01"/>
<polygon fill="green" stroke="green" stroke-width="0.17" points="114.75,-67.62 110.47,-57.93 107.77,-68.18 114.75,-67.62"/>
</g>
</g>
</svg>
